<svg width="52" height="34" viewBox="0 0 52 34" fill="none" xmlns="http://www.w3.org/2000/svg">
<path d="M8.18144 33.5619V25.5983H5.55052C2.07423 25.5983 0 24.2473 0 21.9877V3.38005C0 1.48497 2.43711 0 5.55052 0H46.4495C49.6124 0 52 1.4528 52 3.38005V21.9904C52 24.183 49.8227 25.601 46.4495 25.601H20.6392L8.18144 33.5619Z" fill="black"/>
<path d="M5.55052 1.89776C4.2433 1.89776 2.92371 2.40704 2.92371 3.37737V21.9877C2.92371 23.202 3.6866 23.6952 5.55052 23.6952H11.1052V29.0239L19.4433 23.6978H46.4495C48.2186 23.6978 49.0763 23.1376 49.0763 21.9904V3.38005C49.0763 2.40972 47.7567 1.90044 46.4495 1.90044H5.55052V1.89776Z" fill="white"/>
<path d="M10.6871 16.1283C10.392 16.1283 10.0628 16.0779 9.69955 15.9771C9.33631 15.8841 8.96928 15.7329 8.59847 15.5235C8.23523 15.3142 7.89848 15.0428 7.58821 14.7094C7.28551 14.376 7.03956 13.9767 6.85037 13.5114C6.66875 13.0462 6.57794 12.5074 6.57794 11.8948C6.57794 11.3055 6.66875 10.7861 6.85037 10.3363C7.03956 9.88663 7.28551 9.49895 7.58821 9.1733C7.89091 8.84765 8.22388 8.58403 8.58712 8.38243C8.95793 8.18084 9.32874 8.03352 9.69955 7.94048C10.0704 7.83968 10.4109 7.78928 10.7212 7.78928C11.1071 7.78928 11.4476 7.83968 11.7428 7.94048C12.0379 8.03352 12.2763 8.13432 12.4579 8.24287C12.6471 8.34366 12.7644 8.40957 12.8098 8.44059C12.9612 8.54138 13.1012 8.65381 13.2298 8.77787C13.366 8.89417 13.4341 9.05312 13.4341 9.25471C13.4341 9.35551 13.4114 9.46019 13.366 9.56874C13.3282 9.67729 13.2676 9.78971 13.1844 9.90602C13.033 10.1231 12.8893 10.2821 12.753 10.3829C12.6244 10.4837 12.4957 10.5341 12.3671 10.5341C12.2687 10.5341 12.1741 10.5108 12.0833 10.4643C11.9925 10.4178 11.8828 10.3519 11.7541 10.2666C11.7012 10.2278 11.6331 10.1851 11.5498 10.1386C11.4666 10.0844 11.3531 10.0378 11.2093 9.99906C11.0655 9.95254 10.8763 9.92928 10.6417 9.92928C10.4449 9.92928 10.2293 9.96805 9.99468 10.0456C9.76766 10.1154 9.55198 10.2317 9.34766 10.3945C9.14333 10.5496 8.97685 10.7589 8.8482 11.0225C8.71955 11.2784 8.65523 11.5886 8.65523 11.953C8.65523 12.3251 8.71955 12.6392 8.8482 12.895C8.98442 13.1509 9.15469 13.3603 9.35901 13.5231C9.56333 13.6782 9.77901 13.7945 10.006 13.872C10.2406 13.9418 10.4525 13.9767 10.6417 13.9767C10.8385 13.9767 11.0049 13.9612 11.1412 13.9301C11.2774 13.8914 11.3985 13.841 11.5044 13.7789C11.6179 13.7169 11.7201 13.6549 11.8109 13.5929C11.8941 13.5308 11.9849 13.4766 12.0833 13.43C12.1817 13.3835 12.2801 13.3603 12.3785 13.3603C12.5071 13.3603 12.6357 13.4145 12.7644 13.5231C12.893 13.6316 13.0293 13.7983 13.173 14.0232C13.2563 14.155 13.3168 14.2791 13.3547 14.3954C13.4001 14.5039 13.4228 14.6047 13.4228 14.6978C13.4228 14.8916 13.3547 15.0467 13.2184 15.163C13.0898 15.2793 12.9498 15.3839 12.7985 15.477C12.7455 15.508 12.632 15.5778 12.4579 15.6863C12.2839 15.7949 12.0493 15.8957 11.7541 15.9887C11.459 16.0818 11.1033 16.1283 10.6871 16.1283Z" fill="black"/>
<path d="M14.6017 13.8836C14.4882 13.8836 14.3633 13.872 14.2271 13.8487C14.0909 13.8177 13.9736 13.7363 13.8752 13.6045C13.7844 13.4649 13.739 13.2323 13.739 12.9067C13.739 12.5888 13.7882 12.3678 13.8866 12.2437C13.985 12.1119 14.1023 12.0344 14.2385 12.0111C14.3747 11.9801 14.4995 11.9646 14.6131 11.9646H17.1217C17.2428 11.9646 17.3714 11.9801 17.5076 12.0111C17.6439 12.0344 17.7574 12.1119 17.8482 12.2437C17.9466 12.3755 17.9957 12.6004 17.9957 12.9183C17.9957 13.2362 17.9503 13.4649 17.8595 13.6045C17.7687 13.7363 17.6552 13.8177 17.519 13.8487C17.3903 13.872 17.2579 13.8836 17.1217 13.8836H14.6017Z" fill="black"/>
<path d="M19.5886 16.0004C19.248 16.0004 19.0059 15.95 18.8621 15.8492C18.7183 15.7406 18.6313 15.6049 18.601 15.4421C18.5707 15.2715 18.5556 15.1009 18.5556 14.9304V8.92906C18.5556 8.75848 18.5707 8.59178 18.601 8.42895C18.6313 8.26613 18.7183 8.13432 18.8621 8.03352C19.0059 7.92497 19.2518 7.87069 19.5999 7.87069H21.8588C22.1464 7.87069 22.4567 7.93272 22.7896 8.05678C23.1226 8.17309 23.4367 8.3553 23.7318 8.60341C24.0345 8.85153 24.2804 9.16167 24.4696 9.53384C24.6588 9.90602 24.7534 10.348 24.7534 10.8597C24.7534 11.3637 24.6588 11.8018 24.4696 12.174C24.2804 12.5461 24.0345 12.8563 23.7318 13.1044C23.4367 13.3447 23.1226 13.527 22.7896 13.651C22.4567 13.7673 22.1426 13.8255 21.8475 13.8255H20.6329V14.942C20.6329 15.1126 20.6177 15.2793 20.5875 15.4421C20.5572 15.6049 20.4702 15.7406 20.3264 15.8492C20.1826 15.95 19.9367 16.0004 19.5886 16.0004ZM20.6329 11.6971H21.8588C21.9572 11.6971 22.0707 11.6738 22.1994 11.6273C22.328 11.573 22.4415 11.4839 22.5399 11.3598C22.6383 11.2358 22.6875 11.0652 22.6875 10.8481C22.6875 10.6853 22.6496 10.5418 22.574 10.4178C22.4983 10.2859 22.3961 10.1851 22.2675 10.1154C22.1464 10.0378 22.0064 9.99906 21.8475 9.99906H20.6329V11.6971Z" fill="black"/>
<path d="M26.2714 16.012C25.9308 16.012 25.6887 15.9616 25.5449 15.8608C25.4011 15.7522 25.3141 15.6166 25.2838 15.4537C25.2611 15.2832 25.2498 15.1126 25.2498 14.942V11.1505C25.2498 10.9721 25.2649 10.8054 25.2952 10.6504C25.3254 10.4875 25.4125 10.3557 25.5562 10.2549C25.7 10.1541 25.9422 10.1037 26.2827 10.1037C26.6157 10.1037 26.8503 10.1503 26.9865 10.2433C27.1303 10.3363 27.2173 10.441 27.2476 10.5573C27.2779 10.6659 27.293 10.7512 27.293 10.8132L27.1114 10.7434C27.1114 10.7434 27.1416 10.7085 27.2022 10.6387C27.2627 10.569 27.3497 10.4875 27.4633 10.3945C27.5843 10.3015 27.7243 10.22 27.8833 10.1503C28.0497 10.0805 28.2351 10.0456 28.4395 10.0456C28.5076 10.0456 28.5908 10.0533 28.6892 10.0688C28.7951 10.0766 28.9049 10.096 29.0184 10.127C29.1395 10.158 29.2492 10.2045 29.3476 10.2666C29.4535 10.3286 29.5368 10.41 29.5973 10.5108C29.6654 10.6116 29.6995 10.7357 29.6995 10.883C29.6995 11.2707 29.6162 11.6002 29.4497 11.8716C29.2908 12.1429 29.0789 12.2786 28.8141 12.2786C28.6703 12.2786 28.5681 12.2709 28.5076 12.2554C28.447 12.2321 28.4016 12.2127 28.3714 12.1972C28.3487 12.174 28.3184 12.1546 28.2805 12.1391C28.2503 12.1158 28.1897 12.1042 28.0989 12.1042C27.9854 12.1042 27.8795 12.1197 27.7811 12.1507C27.6903 12.174 27.607 12.2127 27.5314 12.267C27.4633 12.3213 27.4103 12.3872 27.3724 12.4647C27.3346 12.5345 27.3157 12.612 27.3157 12.6973V14.9653C27.3157 15.1358 27.3006 15.3025 27.2703 15.4654C27.24 15.6282 27.153 15.76 27.0092 15.8608C26.8654 15.9616 26.6195 16.012 26.2714 16.012Z" fill="black"/>
<path d="M31.2278 16.012C30.8873 16.012 30.6451 15.9616 30.5013 15.8608C30.3575 15.7522 30.2705 15.6166 30.2402 15.4537C30.2175 15.2909 30.2062 15.1242 30.2062 14.9536V11.1621C30.2062 10.9915 30.2213 10.8287 30.2516 10.6736C30.2819 10.5108 30.3689 10.379 30.5127 10.2782C30.6565 10.1696 30.8986 10.1154 31.2392 10.1154C31.5797 10.1154 31.8181 10.1696 31.9543 10.2782C32.0981 10.379 32.1851 10.5108 32.2154 10.6736C32.2456 10.8365 32.2608 11.007 32.2608 11.1854V14.9653C32.2608 15.1358 32.2456 15.3025 32.2154 15.4654C32.1851 15.6282 32.0981 15.76 31.9543 15.8608C31.8181 15.9616 31.5759 16.012 31.2278 16.012ZM31.2278 9.54548C30.8873 9.54548 30.6451 9.49508 30.5013 9.39428C30.3575 9.28573 30.2705 9.15004 30.2402 8.98721C30.2175 8.82439 30.2062 8.65769 30.2062 8.48711C30.2062 8.30877 30.2213 8.14207 30.2516 7.987C30.2819 7.82417 30.3689 7.69236 30.5127 7.59156C30.6565 7.49077 30.8986 7.44037 31.2392 7.44037C31.5797 7.44037 31.8181 7.49464 31.9543 7.60319C32.0981 7.70399 32.1851 7.8358 32.2154 7.99863C32.2456 8.16145 32.2608 8.32816 32.2608 8.49874C32.2608 8.66932 32.2456 8.83602 32.2154 8.99885C32.1851 9.16167 32.0981 9.29348 31.9543 9.39428C31.8181 9.49508 31.5759 9.54548 31.2278 9.54548Z" fill="black"/>
<path d="M34.02 16.0004C33.6794 16.0004 33.4373 15.95 33.2935 15.8492C33.1497 15.7406 33.0627 15.6049 33.0324 15.4421C33.0097 15.2793 32.9983 15.1126 32.9983 14.942V11.1156C32.9983 10.945 33.0135 10.7822 33.0437 10.6271C33.074 10.472 33.161 10.348 33.3048 10.2549C33.4486 10.1541 33.6908 10.1037 34.0313 10.1037C34.3416 10.1037 34.5648 10.1464 34.701 10.2317C34.8448 10.3092 34.9356 10.4061 34.9735 10.5224C35.0113 10.6387 35.0264 10.7473 35.0189 10.8481C35.0189 10.9411 35.0264 10.9993 35.0416 11.0225L34.9508 11.0923C34.9432 10.976 34.9848 10.8597 35.0756 10.7434C35.174 10.6271 35.2989 10.5224 35.4502 10.4294C35.6091 10.3286 35.7756 10.2511 35.9497 10.1968C36.1313 10.1347 36.3016 10.1037 36.4605 10.1037C36.8389 10.1037 37.1718 10.1774 37.4594 10.3247C37.747 10.472 37.9853 10.6814 38.1745 10.9528C38.3713 11.2164 38.5189 11.5265 38.6172 11.8832C38.7156 12.2399 38.7648 12.6275 38.7648 13.0462V14.9536C38.7648 15.1242 38.7497 15.2909 38.7194 15.4537C38.6891 15.6166 38.6021 15.7484 38.4583 15.8492C38.3221 15.95 38.0799 16.0004 37.7318 16.0004C37.3837 16.0004 37.1378 15.95 36.994 15.8492C36.8502 15.7406 36.7632 15.6049 36.7329 15.4421C36.7026 15.2793 36.6875 15.1126 36.6875 14.942V13.0462C36.6875 12.8679 36.6535 12.7167 36.5853 12.5926C36.5248 12.4686 36.434 12.3755 36.3129 12.3135C36.1994 12.2437 36.0556 12.2088 35.8816 12.2088C35.7151 12.2088 35.5675 12.2437 35.4389 12.3135C35.3178 12.3833 35.2232 12.4802 35.1551 12.6043C35.087 12.7283 35.0529 12.8757 35.0529 13.0462V14.9536C35.0529 15.1242 35.0378 15.2909 35.0075 15.4537C34.9772 15.6166 34.8902 15.7484 34.7464 15.8492C34.6102 15.95 34.3681 16.0004 34.02 16.0004Z" fill="black"/>
<path d="M42.4045 16.012C42.0034 16.012 41.6553 15.9655 41.3602 15.8724C41.065 15.7794 40.8191 15.6359 40.6223 15.4421C40.4331 15.2483 40.2894 15.004 40.191 14.7094C40.1002 14.4147 40.0548 14.0697 40.0548 13.6743V9.16167C40.0548 8.98334 40.0699 8.82051 40.1002 8.67319C40.1304 8.51812 40.2175 8.39406 40.3612 8.30102C40.505 8.20022 40.7472 8.14982 41.0877 8.14982C41.4207 8.14982 41.6591 8.2041 41.8029 8.31265C41.9466 8.41345 42.0337 8.54526 42.0639 8.70808C42.0942 8.87091 42.1093 9.03761 42.1093 9.20819V13.5696C42.1093 13.6549 42.1131 13.7286 42.1207 13.7906C42.1358 13.8449 42.1548 13.8875 42.1775 13.9185C42.2002 13.9495 42.2304 13.9728 42.2683 13.9883C42.3061 14.0038 42.3553 14.0116 42.4158 14.0116C42.6126 14.0116 42.7866 14.0271 42.938 14.0581C43.0969 14.0891 43.218 14.1705 43.3012 14.3023C43.392 14.4341 43.4375 14.6551 43.4375 14.9653C43.4375 15.3142 43.3845 15.5623 43.2785 15.7096C43.1726 15.8569 43.0402 15.9422 42.8812 15.9655C42.7223 15.9965 42.5634 16.012 42.4045 16.012ZM39.8164 10.1735H41.1445L42.711 10.1154C42.8775 10.1154 43.0364 10.1309 43.1877 10.1619C43.3466 10.1929 43.4753 10.2821 43.5737 10.4294C43.6796 10.5767 43.7326 10.8287 43.7326 11.1854C43.7326 11.511 43.6796 11.7475 43.5737 11.8948C43.4753 12.0421 43.3466 12.1352 43.1877 12.174C43.0364 12.2127 42.8737 12.2321 42.6996 12.2321L41.258 12.1972H39.771C39.5137 12.1817 39.3358 12.0964 39.2375 11.9413C39.1391 11.7863 39.0899 11.5304 39.0899 11.1737C39.0899 10.8403 39.1504 10.5922 39.2715 10.4294C39.3926 10.2588 39.5742 10.1735 39.8164 10.1735Z" fill="black"/>
</svg>
